{
	"patcher" : 	{
		"fileversion" : 1,
		"appversion" : 		{
			"major" : 8,
			"minor" : 5,
			"revision" : 5,
			"architecture" : "x64",
			"modernui" : 1
		},
		"classnamespace" : "box",
		"rect" : [ 59.0, 171.0, 610.0, 400.0 ],
		"bglocked" : 0,
		"openinpresentation" : 0,
		"default_fontsize" : 12.0,
		"defaultfontfamily" : "Arial",
		"defaultfontface" : 0,
		"defaultfontcolor" : [ 0.0, 0.0, 0.0, 1.0 ],
		"defaultbgcolor" : [ 0.95, 0.95, 0.95, 1.0 ],
		"gridonopen" : 1,
		"gridsize" : [ 15.0, 15.0 ],
		"gridsnaponopen" : 1,
		"objectsnaponopen" : 1,
		"statusbarvisible" : 2,
		"toolbarvisible" : 1,
		"lefttoolbarpinned" : 0,
		"toptoolbarpinned" : 0,
		"righttoolbarpinned" : 0,
		"bottomtoolbarpinned" : 0,
		"toolbars_unpinned_last_save" : 0,
		"tallnewobj" : 0,
		"boxanimatetime" : 200,
		"enablehscroll" : 1,
		"enablevscroll" : 1,
		"devicewidth" : 0.0,
		"description" : "",
		"digest" : "",
		"tags" : "",
		"style" : "",
		"subpatcher_template" : "",
		"assistshowspatchername" : 0,
		"boxes" : [ 			{
				"box" : 				{
					"id" : "obj-1",
					"maxclass" : "newobj",
					"numinlets" : 1,
					"numoutlets" : 1,
					"patching_rect" : [ 50.0, 50.0, 35.0, 22.0 ],
					"text" : "udpreceive 12000"
				}

			},
			 			{
				"box" : 				{
					"id" : "obj-2",
					"maxclass" : "newobj",
					"numinlets" : 1,
					"numoutlets" : 1,
					"patching_rect" : [ 50.0, 100.0, 35.0, 22.0 ],
					"text" : "udpsend 127.0.0.1 12000"
				}

			},
			 			{
				"box" : 				{
					"id" : "obj-3",
					"maxclass" : "newobj",
					"numinlets" : 2,
					"numoutlets" : 1,
					"patching_rect" : [ 150.0, 50.0, 35.0, 22.0 ],
					"text" : "route /startRecording /stopRecording"
				}

			},
			 			{
				"box" : 				{
					"id" : "obj-4",
					"maxclass" : "newobj",
					"numinlets" : 1,
					"numoutlets" : 1,
					"patching_rect" : [ 150.0, 100.0, 35.0, 22.0 ],
					"text" : "print"
				}

			},
			 			{
				"box" : 				{
					"id" : "obj-5",
					"maxclass" : "newobj",
					"numinlets" : 1,
					"numoutlets" : 1,
					"patching_rect" : [ 50.0, 150.0, 35.0, 22.0 ],
					"text" : "button"
				}

			},
			 			{
				"box" : 				{
					"id" : "obj-6",
					"maxclass" : "newobj",
					"numinlets" : 1,
					"numoutlets" : 1,
					"patching_rect" : [ 50.0, 200.0, 35.0, 22.0 ],
					"text" : "button"
				}

			}
		],
		"lines" : [ 			{
				"patchline" : 				{
					"destination" : [ "obj-3", 0 ],
					"source" : [ "obj-1", 0 ]
				}

			},
			 			{
				"patchline" : 				{
					"destination" : [ "obj-4", 0 ],
					"source" : [ "obj-2", 0 ]
				}

			},
			 			{
				"patchline" : 				{
					"destination" : [ "obj-2", 0 ],
					"source" : [ "obj-5", 0 ]
				}

			},
			 			{
				"patchline" : 				{
					"destination" : [ "obj-2", 0 ],
					"source" : [ "obj-6", 0 ]
				}

			}
		]
	}
} 